# xmcd CD database file
#
# Track frame offsets:
#	150
#	3458
#	30533
#	49992
#	66412
#	87917
#	104536
#	125831
#	144742
#	158799
#	177337
#	202750
#	220321
#	238578
#	264141
#
# Disc length: 4009 seconds
#
# Revision: 2
# Processed by: cddbd v1.4b41PL1 Copyright (c) Steve Scherf et al.
# Submitted via: Feurio! 1.52.5ß - http://www.feurio.com
#
DISCID=d60fa70f
DTITLE=Rockfabrik - No Mercy On X - Mas
DYEAR=1900
DGENRE=
TTITLE0=Prolopower - Rofa Spezial
TTITLE1=Gamma Ray - Beyond The Black Hole
TTITLE2=Primal Fear - Chainbreaker
TTITLE3=Running Wild - Kiss Of Death
TTITLE4=Hammerfall - Hammerfall
TTITLE5=Die Verlorenen Söhne - Im Namen Des Vaters
TTITLE6=Dreamscape - Faithful Silence
TTITLE7=Atrocity - Maid Of Orleans
TTITLE8=Prolopower - Fasching
TTITLE9=Gotthard - Hole In One
TTITLE10=Pink Cream 69 - Keep Your Eye On The Twisted
TTITLE11=Different Art - 2 Carry
TTITLE12=Covenant - Planetarium
TTITLE13=Stratovarius - The Kiss Of Judas
TTITLE14=Savatage - Turns To Me
EXTD=
EXTT0=
EXTT1=
EXTT2=
EXTT3=
EXTT4=
EXTT5=
EXTT6=
EXTT7=
EXTT8=
EXTT9=
EXTT10=
EXTT11=
EXTT12=
EXTT13=
EXTT14=
PLAYORDER=
